<svg xmlns="http://www.w3.org/2000/svg" viewBox="0 0 64 64" role="img" aria-label="Vibe Mall">
  <defs>
    <linearGradient id="bag" x1="13" y1="8" x2="52" y2="58" gradientUnits="userSpaceOnUse">
      <stop offset="0" stop-color="#0a8f89"/>
      <stop offset="0.52" stop-color="#087f7a"/>
      <stop offset="1" stop-color="#3157a4"/>
    </linearGradient>
    <linearGradient id="spark" x1="35" y1="15" x2="53" y2="33" gradientUnits="userSpaceOnUse">
      <stop offset="0" stop-color="#fffdf7"/>
      <stop offset="1" stop-color="#b7d94f"/>
    </linearGradient>
  </defs>
  <rect width="64" height="64" rx="14" fill="#151515"/>
  <path
    fill="url(#bag)"
    d="M15 25.2c.4-3.1 3-5.4 6.1-5.4h21.8c3.1 0 5.7 2.3 6.1 5.4l3.1 22.4A6.2 6.2 0 0 1 46 54.6H18a6.2 6.2 0 0 1-6.1-7l3.1-22.4Z"
  />
  <path
    fill="none"
    stroke="#fffdf7"
    stroke-linecap="round"
    stroke-width="4"
    d="M24 22.5V19c0-4.4 3.6-8 8-8s8 3.6 8 8v3.5"
  />
  <path fill="url(#spark)" d="m45.4 12.7 1.8 5.1 5.1 1.8-5.1 1.8-1.8 5.1-1.8-5.1-5.1-1.8 5.1-1.8 1.8-5.1Z"/>
  <path fill="#e0523f" d="m17.9 13.4 1.2 3.3 3.3 1.2-3.3 1.2-1.2 3.3-1.2-3.3-3.3-1.2 3.3-1.2 1.2-3.3Z"/>
</svg>
